<mxfile host="app.diagrams.net" modified="2021-09-24T11:56:19.579Z" agent="5.0 (X11)" etag="uvSeuBT5tpRKw8CIr3ZI" version="15.2.9" type="github">
  <diagram id="RGWBfU-PO1K_eORvRJbW" name="Page-1">
    <mxGraphModel dx="823" dy="632" grid="0" gridSize="10" guides="1" tooltips="1" connect="1" arrows="1" fold="1" page="1" pageScale="1" pageWidth="827" pageHeight="1169" math="0" shadow="0">
      <root>
        <mxCell id="0" />
        <mxCell id="1" parent="0" />
        <mxCell id="ittZsM3rqx42YdA5RkF8-1" value="&lt;font style=&quot;font-size: 20px&quot;&gt;图像坐标&lt;br&gt;&lt;/font&gt;" style="rounded=0;whiteSpace=wrap;html=1;" vertex="1" parent="1">
          <mxGeometry x="67" y="260" width="120" height="60" as="geometry" />
        </mxCell>
        <mxCell id="ittZsM3rqx42YdA5RkF8-2" value="&lt;font style=&quot;font-size: 20px&quot;&gt;相机坐标&lt;br&gt;&lt;/font&gt;" style="rounded=0;whiteSpace=wrap;html=1;" vertex="1" parent="1">
          <mxGeometry x="61" y="431" width="120" height="60" as="geometry" />
        </mxCell>
        <mxCell id="ittZsM3rqx42YdA5RkF8-3" value="&lt;font style=&quot;font-size: 20px&quot;&gt;像素坐标&lt;br&gt;&lt;/font&gt;" style="rounded=0;whiteSpace=wrap;html=1;" vertex="1" parent="1">
          <mxGeometry x="71" y="100" width="120" height="60" as="geometry" />
        </mxCell>
        <mxCell id="ittZsM3rqx42YdA5RkF8-4" value="&lt;font style=&quot;font-size: 20px&quot;&gt;世界坐标&lt;br&gt;&lt;/font&gt;" style="rounded=0;whiteSpace=wrap;html=1;" vertex="1" parent="1">
          <mxGeometry x="65" y="580" width="120" height="60" as="geometry" />
        </mxCell>
        <mxCell id="ittZsM3rqx42YdA5RkF8-6" style="edgeStyle=orthogonalEdgeStyle;rounded=0;orthogonalLoop=1;jettySize=auto;html=1;exitX=0;exitY=0.5;exitDx=0;exitDy=0;entryX=1;entryY=0.5;entryDx=0;entryDy=0;" edge="1" parent="1" source="ittZsM3rqx42YdA5RkF8-5" target="ittZsM3rqx42YdA5RkF8-3">
          <mxGeometry relative="1" as="geometry" />
        </mxCell>
        <mxCell id="ittZsM3rqx42YdA5RkF8-5" value="&lt;div align=&quot;justify&quot;&gt;原点：图像左上角P0点&amp;nbsp;&lt;br&gt; 单位：像素&amp;nbsp;&lt;br&gt; 横坐标u：图像数组中的列数&amp;nbsp;&lt;br&gt; 纵坐标v：图像数组中的行数&lt;/div&gt;" style="rounded=1;whiteSpace=wrap;html=1;align=left;" vertex="1" parent="1">
          <mxGeometry x="315" y="93" width="161" height="75" as="geometry" />
        </mxCell>
        <mxCell id="ittZsM3rqx42YdA5RkF8-13" style="edgeStyle=orthogonalEdgeStyle;rounded=0;orthogonalLoop=1;jettySize=auto;html=1;exitX=1;exitY=0.5;exitDx=0;exitDy=0;strokeWidth=2;" edge="1" parent="1" source="ittZsM3rqx42YdA5RkF8-11">
          <mxGeometry relative="1" as="geometry">
            <mxPoint x="774.5" y="142.16666666666674" as="targetPoint" />
          </mxGeometry>
        </mxCell>
        <mxCell id="ittZsM3rqx42YdA5RkF8-14" style="edgeStyle=orthogonalEdgeStyle;rounded=0;orthogonalLoop=1;jettySize=auto;html=1;exitX=0;exitY=1;exitDx=0;exitDy=0;strokeWidth=2;" edge="1" parent="1" source="ittZsM3rqx42YdA5RkF8-11">
          <mxGeometry relative="1" as="geometry">
            <mxPoint x="546.1666666666667" y="399.66666666666674" as="targetPoint" />
            <Array as="points">
              <mxPoint x="547" y="236" />
              <mxPoint x="546" y="236" />
            </Array>
          </mxGeometry>
        </mxCell>
        <mxCell id="ittZsM3rqx42YdA5RkF8-11" value="" style="ellipse;whiteSpace=wrap;html=1;aspect=fixed;" vertex="1" parent="1">
          <mxGeometry x="545" y="137" width="10" height="10" as="geometry" />
        </mxCell>
        <mxCell id="ittZsM3rqx42YdA5RkF8-15" value="U" style="text;html=1;align=center;verticalAlign=middle;resizable=0;points=[];autosize=1;strokeColor=none;fillColor=none;" vertex="1" parent="1">
          <mxGeometry x="738" y="118" width="19" height="18" as="geometry" />
        </mxCell>
        <mxCell id="ittZsM3rqx42YdA5RkF8-16" value="V" style="text;html=1;align=center;verticalAlign=middle;resizable=0;points=[];autosize=1;strokeColor=none;fillColor=none;" vertex="1" parent="1">
          <mxGeometry x="512" y="362" width="17" height="18" as="geometry" />
        </mxCell>
        <mxCell id="ittZsM3rqx42YdA5RkF8-17" value="O_1" style="text;html=1;align=center;verticalAlign=middle;resizable=0;points=[];autosize=1;strokeColor=none;fillColor=none;" vertex="1" parent="1">
          <mxGeometry x="515" y="129" width="32" height="18" as="geometry" />
        </mxCell>
        <mxCell id="ittZsM3rqx42YdA5RkF8-24" style="edgeStyle=orthogonalEdgeStyle;rounded=0;orthogonalLoop=1;jettySize=auto;html=1;exitX=1;exitY=0.5;exitDx=0;exitDy=0;strokeWidth=2;" edge="1" parent="1" source="ittZsM3rqx42YdA5RkF8-22">
          <mxGeometry relative="1" as="geometry">
            <mxPoint x="752" y="232.16666666666674" as="targetPoint" />
          </mxGeometry>
        </mxCell>
        <mxCell id="ittZsM3rqx42YdA5RkF8-25" style="edgeStyle=orthogonalEdgeStyle;rounded=0;orthogonalLoop=1;jettySize=auto;html=1;exitX=0.5;exitY=1;exitDx=0;exitDy=0;strokeWidth=2;" edge="1" parent="1" source="ittZsM3rqx42YdA5RkF8-22">
          <mxGeometry relative="1" as="geometry">
            <mxPoint x="641.1666666666667" y="355.5" as="targetPoint" />
          </mxGeometry>
        </mxCell>
        <mxCell id="ittZsM3rqx42YdA5RkF8-22" value="" style="ellipse;whiteSpace=wrap;html=1;aspect=fixed;" vertex="1" parent="1">
          <mxGeometry x="636" y="227" width="11" height="11" as="geometry" />
        </mxCell>
        <mxCell id="ittZsM3rqx42YdA5RkF8-26" value="x" style="text;html=1;align=center;verticalAlign=middle;resizable=0;points=[];autosize=1;strokeColor=none;fillColor=none;" vertex="1" parent="1">
          <mxGeometry x="727" y="202" width="16" height="18" as="geometry" />
        </mxCell>
        <mxCell id="ittZsM3rqx42YdA5RkF8-27" value="y" style="text;html=1;align=center;verticalAlign=middle;resizable=0;points=[];autosize=1;strokeColor=none;fillColor=none;" vertex="1" parent="1">
          <mxGeometry x="622" y="332" width="16" height="18" as="geometry" />
        </mxCell>
        <mxCell id="ittZsM3rqx42YdA5RkF8-28" value="&lt;div&gt;O_2&lt;/div&gt;" style="text;html=1;align=center;verticalAlign=middle;resizable=0;points=[];autosize=1;strokeColor=none;fillColor=none;" vertex="1" parent="1">
          <mxGeometry x="604" y="227" width="32" height="18" as="geometry" />
        </mxCell>
      </root>
    </mxGraphModel>
  </diagram>
</mxfile>
